<svg width="613" height="37" viewBox="0 0 613 37" fill="none" xmlns="http://www.w3.org/2000/svg">
<path d="M10.244 15.744C12.428 14.704 13.338 13.482 13.338 11.662C13.338 9.036 11.102 7.242 7.8 7.242C4.238 7.242 1.846 9.218 1.846 12.182C1.846 14.028 2.704 15.276 4.602 16.212C2.236 16.966 1.092 18.318 1.092 20.346C1.092 23.284 3.692 25.312 7.488 25.312C11.44 25.312 14.014 23.31 14.014 20.242C14.014 18.084 12.896 16.758 10.244 15.744ZM9.022 15.146C6.032 13.846 5.122 13.014 5.122 11.376C5.122 9.894 6.188 8.802 7.644 8.802C9.256 8.802 10.374 10.102 10.374 11.948C10.374 13.222 9.984 14.158 9.022 15.146ZM5.772 16.836C9.438 18.214 10.738 19.332 10.738 21.022C10.738 22.634 9.464 23.752 7.644 23.752C5.616 23.752 4.16 22.218 4.16 20.06C4.16 18.786 4.576 17.928 5.772 16.836ZM31.4198 15.744C33.6038 14.704 34.5138 13.482 34.5138 11.662C34.5138 9.036 32.2778 7.242 28.9758 7.242C25.4138 7.242 23.0218 9.218 23.0218 12.182C23.0218 14.028 23.8798 15.276 25.7778 16.212C23.4118 16.966 22.2678 18.318 22.2678 20.346C22.2678 23.284 24.8678 25.312 28.6638 25.312C32.6158 25.312 35.1898 23.31 35.1898 20.242C35.1898 18.084 34.0718 16.758 31.4198 15.744ZM30.1978 15.146C27.2078 13.846 26.2978 13.014 26.2978 11.376C26.2978 9.894 27.3638 8.802 28.8198 8.802C30.4318 8.802 31.5498 10.102 31.5498 11.948C31.5498 13.222 31.1598 14.158 30.1978 15.146ZM26.9478 16.836C30.6138 18.214 31.9138 19.332 31.9138 21.022C31.9138 22.634 30.6398 23.752 28.8198 23.752C26.7918 23.752 25.3358 22.218 25.3358 20.06C25.3358 18.786 25.7518 17.928 26.9478 16.836ZM45.5132 7.398L36.9332 18.188V20.294H45.0192V25.806H48.0612V20.294H50.9992V18.24H48.0612V7.398H45.5132ZM45.0192 10.986V18.24H39.2992L45.0192 10.986ZM56.1486 9.244C56.7466 9.01 57.1626 8.906 57.6566 8.906C59.5026 8.906 60.8026 10.206 60.8026 12.026C60.8026 14.028 59.3986 15.224 57.0846 15.224C56.8506 15.224 56.6426 15.224 56.2526 15.198V17.07C57.2146 16.966 57.3966 16.94 57.8646 16.94C60.0486 16.94 61.4526 18.214 61.4526 20.164C61.4526 22.192 59.9186 23.804 57.9946 23.804C57.4486 23.804 57.0326 23.7 56.1746 23.362L55.3426 20.554C54.8226 20.398 54.6146 20.346 54.3026 20.346C53.2366 20.346 52.4826 21.048 52.4826 22.036C52.4826 23.934 54.7706 25.312 57.9166 25.312C61.9986 25.312 64.9886 23.05 64.9886 19.956C64.9886 17.564 63.1946 16.056 60.0746 15.822C62.8826 15.146 64.3386 13.742 64.3386 11.636C64.3386 9.01 62.0506 7.242 58.6446 7.242C55.4206 7.242 52.8986 8.828 52.8986 10.83C52.8986 11.922 53.6526 12.65 54.7966 12.65C55.3426 12.65 55.7326 12.546 56.1486 12.286V9.244ZM77.0644 22.348C83.7724 17.746 85.8264 15.354 85.8264 12.234C85.8264 9.218 83.5384 7.242 80.0284 7.242C76.6224 7.242 74.0484 8.958 74.0484 11.22C74.0484 12.338 74.7764 13.04 75.9204 13.04C76.4664 13.04 76.9084 12.91 77.5584 12.572V9.218C78.1824 8.984 78.5984 8.906 79.0924 8.906C81.0164 8.906 82.2904 10.31 82.2904 12.39C82.2904 15.458 80.2884 17.928 73.8144 22.946V25H86.3984V20.06H84.8124L84.3444 22.348H77.0644ZM95.3698 7.242C91.1838 7.242 88.7138 10.596 88.7138 16.316C88.7138 21.906 91.2098 25.312 95.2918 25.312C99.4258 25.312 101.922 21.906 101.922 16.29C101.922 10.726 99.3998 7.242 95.3698 7.242ZM95.2918 8.75C97.3718 8.75 98.3858 11.22 98.3858 16.238C98.3858 21.308 97.3718 23.804 95.3178 23.804C93.2898 23.804 92.2498 21.282 92.2498 16.264C92.2498 11.298 93.2898 8.75 95.2918 8.75ZM104.757 7.554V12.858H106.473L106.863 10.44H114.377L106.005 25.884H108.787V25.156L117.211 9.244V7.554H104.757ZM131.653 7.242C127.467 7.242 124.997 10.596 124.997 16.316C124.997 21.906 127.493 25.312 131.575 25.312C135.709 25.312 138.205 21.906 138.205 16.29C138.205 10.726 135.683 7.242 131.653 7.242ZM131.575 8.75C133.655 8.75 134.669 11.22 134.669 16.238C134.669 21.308 133.655 23.804 131.601 23.804C129.573 23.804 128.533 21.282 128.533 16.264C128.533 11.298 129.573 8.75 131.575 8.75ZM146.437 7.242L140.561 9.14V10.492L144.409 9.92L144.669 10.284V23.05L144.331 23.518H141.601V25H151.091V23.7H148.491L148.231 23.18V7.242H146.437ZM167.613 7.242L161.737 9.14V10.492L165.585 9.92L165.845 10.284V23.05L165.507 23.518H162.777V25H172.267V23.7H169.667L169.407 23.18V7.242H167.613ZM176.117 7.554V16.55C177.313 16.29 178.223 16.186 179.263 16.186C182.097 16.186 183.813 17.59 183.813 19.93C183.813 22.14 182.201 23.726 179.965 23.726C179.575 23.726 179.289 23.7 178.847 23.596L177.963 20.658C177.599 20.528 177.313 20.476 176.923 20.476C175.831 20.476 175.051 21.204 175.051 22.218C175.051 23.934 177.157 25.234 179.913 25.234C184.203 25.234 187.245 22.738 187.245 19.228C187.245 16.134 184.931 14.08 181.473 14.08C180.407 14.08 179.601 14.236 178.223 14.652V10.258H186.335V7.554H176.117Z" fill="white"/>
<rect x="208" width="1" height="37" fill="#FFE14A"/>
<path d="M237.204 25H241.754V23.83L240.402 23.7L240.064 23.336V16.628C240.064 15.406 239.96 13.95 238.946 13.014C237.958 12.078 236.268 12.026 235.514 12.026C234.5 12.026 232.706 12.13 231.198 12.936C229.69 13.742 229.586 14.73 229.586 15.12C229.586 15.796 230.236 16.004 230.782 16.004H233.174V13.56C233.668 13.482 234.032 13.43 234.422 13.43C236.762 13.43 236.866 14.99 236.866 15.874V16.108V16.888C235.93 17.096 233.33 17.694 232.03 18.162C230.73 18.63 228.962 19.514 228.962 21.75C228.962 23.726 230.054 25.234 232.42 25.234C234.006 25.234 235.462 24.428 236.866 23.518L237.204 25ZM236.866 22.452C235.748 22.946 235.098 23.206 234.37 23.206C233.486 23.206 232.446 22.842 232.446 21.282C232.446 19.358 234.734 18.604 236.866 18.214V22.452ZM242.847 25H249.243V23.83L248.099 23.7L247.735 23.336V14.756C249.243 14.314 249.971 14.288 250.205 14.288C251.921 14.288 252.545 15.64 252.545 17.2V23.336L252.181 23.7L251.037 23.83V25H257.433V23.83L256.081 23.7L255.743 23.336V16.368C255.743 15.354 255.535 12.026 252.311 12.026C250.855 12.026 249.087 12.858 247.735 13.638V12.104H246.487L242.769 13.326V14.366H244.537V23.336L244.173 23.7L242.847 23.83V25ZM270.473 21.776C268.549 22.972 267.119 23.18 266.209 23.18C262.751 23.18 261.997 20.528 261.997 18.37H270.499C270.499 15.64 269.901 12.026 265.143 12.026C262.907 12.026 261.477 12.91 260.671 13.664C259.449 14.834 258.669 16.602 258.669 18.734C258.669 21.178 259.657 22.66 260.411 23.44C261.321 24.376 262.803 25.234 265.143 25.234C267.457 25.234 269.381 24.324 270.473 23.7V21.776ZM262.127 16.992C262.127 14.704 263.557 13.43 264.831 13.43C266.105 13.43 267.093 14.652 267.093 16.784V16.992H262.127ZM273.526 14.236V21.802C273.526 23.544 273.63 25.13 276.698 25.13C277.348 25.13 279.298 24.714 280.572 24.298V23.05C279.922 23.206 279.428 23.232 278.908 23.232C277.79 23.232 276.724 22.946 276.724 20.71V14.236H280.572V12.676H276.724V9.452H275.112L273.76 12.156L271.836 13.248V14.236H273.526ZM292.751 21.984C292.179 22.374 290.723 23.206 289.163 23.206C287.967 23.206 287.005 22.816 286.277 21.906C285.887 21.412 285.185 20.32 285.185 18.24C285.185 17.044 285.757 13.352 288.539 13.352C288.747 13.352 288.955 13.378 289.189 13.43V16.186C289.813 16.602 290.307 16.68 290.697 16.68C291.789 16.68 292.595 15.978 292.595 14.886C292.595 14.496 292.491 13.638 291.555 12.936C290.697 12.286 289.475 12.026 288.331 12.026C285.861 12.026 284.327 13.118 283.599 13.82C282.377 14.99 281.597 16.706 281.597 18.838C281.597 20.944 282.377 22.556 283.417 23.57C284.223 24.35 285.653 25.234 287.863 25.234C288.539 25.234 290.541 25.156 292.751 23.83V21.984ZM300.825 12.026C297.211 12.026 294.013 13.924 294.013 18.682C294.013 23.206 297.003 25.234 300.591 25.234C303.451 25.234 307.273 23.882 307.273 18.63C307.273 15.952 306.129 14.366 305.193 13.56C304.179 12.676 302.723 12.026 300.825 12.026ZM300.617 13.43C303.217 13.43 303.685 17.226 303.685 18.682C303.685 20.424 303.139 23.83 300.617 23.83C298.173 23.83 297.601 20.45 297.601 18.604C297.601 16.732 297.965 15.64 298.303 14.964C298.615 14.366 299.265 13.43 300.617 13.43ZM313.928 12.104H312.68L309.04 13.326V14.366H310.73V23.336L310.366 23.7L309.04 23.83V25H315.436V23.83L314.292 23.7L313.928 23.336V14.756C314.344 14.6 315.28 14.288 316.164 14.288C317.464 14.288 318.426 15.068 318.426 16.966V23.336L318.062 23.7L316.918 23.83V25H323.132V23.83L321.988 23.7L321.624 23.336V14.808C322.742 14.314 323.6 14.288 323.964 14.288C325.576 14.288 326.252 15.458 326.252 17.122V23.336L325.888 23.7L324.744 23.83V25H331.14V23.83L329.788 23.7L329.45 23.336V16.368C329.45 14.964 328.956 12.026 326.018 12.026C324.77 12.026 322.976 12.832 321.234 13.82C320.74 12.962 319.778 12.026 318.218 12.026C316.996 12.026 315.462 12.702 313.928 13.638V12.104ZM332.014 30.668H338.982V29.498H337.37L336.98 29.03V24.87C337.812 24.974 338.618 25.026 339.138 25.026C341.374 25.026 343.116 24.22 344.234 23.024C345.092 22.114 345.976 20.58 345.976 18.188C345.976 13.534 342.882 12.026 341.114 12.026C339.762 12.026 338.566 12.572 336.98 13.664V12.104H335.81L332.014 13.326V14.366H333.782V28.978L333.418 29.368L332.014 29.498V30.668ZM336.98 14.756C338.072 14.288 338.826 14.262 339.086 14.262C340.308 14.262 341.062 14.808 341.504 15.302C341.92 15.77 342.492 16.758 342.492 18.63C342.492 21.698 340.88 23.622 338.566 23.622C337.76 23.622 337.344 23.544 336.98 23.44V14.756ZM366.2 25.65C363.938 26.95 361.832 27.548 359.596 27.548C354.24 27.548 350.678 23.83 350.678 18.266C350.678 12.546 354.786 8.282 360.298 8.282C364.718 8.282 367.604 11.09 367.604 15.38C367.604 18.708 365.706 21.932 363.756 21.932C363.21 21.932 362.872 21.542 362.872 20.944C362.872 20.554 362.924 20.138 363.08 19.436L364.016 15.016C364.328 13.482 364.484 12.91 364.718 12.312H362.95L362.508 12.91C361.468 12.39 360.818 12.208 359.986 12.208C356.606 12.208 353.668 15.536 353.668 19.332C353.668 21.828 354.968 23.518 356.866 23.518C358.062 23.518 359.206 22.894 360.532 21.516C360.584 22.946 361.208 23.596 362.534 23.596C365.914 23.596 368.93 19.696 368.93 15.354C368.93 10.31 365.498 6.982 360.298 6.982C353.668 6.982 348.702 12 348.702 18.682C348.702 24.714 353.148 28.978 358.92 28.978C361.39 28.978 363.834 28.25 366.668 26.69L366.2 25.65ZM361.546 14.886L360.61 20.06C359.726 21.23 359.05 21.698 358.218 21.698C357.022 21.698 356.372 20.736 356.372 18.942C356.372 15.848 358.01 13.482 360.142 13.482C360.272 13.482 360.376 13.482 360.61 13.508L361.546 14.886ZM370.49 12.338V13.508L372.05 13.716L376.678 25.312C376.132 26.612 375.56 27.73 374.65 28.484L372.388 26.924C371.842 27.184 371.036 27.756 371.036 28.744C371.036 30.096 372.44 30.694 373.22 30.694C373.896 30.694 374.91 30.46 376.054 29.238C376.86 28.354 377.614 27.132 378.108 25.91L383.126 13.716L384.53 13.508V12.338H379.538V13.508L380.916 13.638L381.15 14.028L378.316 21.36L375.508 14.002L375.768 13.638L377.094 13.508V12.338H370.49ZM393.179 25H397.729V23.83L396.377 23.7L396.039 23.336V16.628C396.039 15.406 395.935 13.95 394.921 13.014C393.933 12.078 392.243 12.026 391.489 12.026C390.475 12.026 388.681 12.13 387.173 12.936C385.665 13.742 385.561 14.73 385.561 15.12C385.561 15.796 386.211 16.004 386.757 16.004H389.149V13.56C389.643 13.482 390.007 13.43 390.397 13.43C392.737 13.43 392.841 14.99 392.841 15.874V16.108V16.888C391.905 17.096 389.305 17.694 388.005 18.162C386.705 18.63 384.937 19.514 384.937 21.75C384.937 23.726 386.029 25.234 388.395 25.234C389.981 25.234 391.437 24.428 392.841 23.518L393.179 25ZM392.841 22.452C391.723 22.946 391.073 23.206 390.345 23.206C389.461 23.206 388.421 22.842 388.421 21.282C388.421 19.358 390.709 18.604 392.841 18.214V22.452ZM398.822 25H405.218V23.83L404.074 23.7L403.71 23.336V14.756C405.218 14.314 405.946 14.288 406.18 14.288C407.896 14.288 408.52 15.64 408.52 17.2V23.336L408.156 23.7L407.012 23.83V25H413.408V23.83L412.056 23.7L411.718 23.336V16.368C411.718 15.354 411.51 12.026 408.286 12.026C406.83 12.026 405.062 12.858 403.71 13.638V12.104H402.462L398.744 13.326V14.366H400.512V23.336L400.148 23.7L398.822 23.83V25ZM423.796 8.048V12.26C423.042 12.13 422.158 12.026 421.456 12.026C418.258 12.026 414.644 13.768 414.644 18.994C414.644 22.92 417.036 25.234 419.688 25.234C421.222 25.234 422.6 24.428 423.796 23.544V25H428.684V23.83L427.358 23.7L426.994 23.336V5.786H425.746L421.898 7.008V8.048H423.796ZM423.796 22.53C422.756 22.946 422.08 23.024 421.716 23.024C418.804 23.024 418.128 20.606 418.128 18.448C418.128 15.874 419.09 13.43 421.872 13.43C422.496 13.43 422.938 13.586 423.796 13.846V22.53ZM441.936 21.776C440.012 22.972 438.582 23.18 437.672 23.18C434.214 23.18 433.46 20.528 433.46 18.37H441.962C441.962 15.64 441.364 12.026 436.606 12.026C434.37 12.026 432.94 12.91 432.134 13.664C430.912 14.834 430.132 16.602 430.132 18.734C430.132 21.178 431.12 22.66 431.874 23.44C432.784 24.376 434.266 25.234 436.606 25.234C438.92 25.234 440.844 24.324 441.936 23.7V21.776ZM433.59 16.992C433.59 14.704 435.02 13.43 436.294 13.43C437.568 13.43 438.556 14.652 438.556 16.784V16.992H433.59ZM443.55 12.338V13.508L445.032 13.742L448.646 18.916L445.006 23.57L443.472 23.83V25H448.516V23.83L447.19 23.596L449.634 20.008L451.922 23.492L451.818 23.83L450.908 23.986V25H456.992V23.83L455.614 23.622L451.74 18.032L455.068 13.716L456.498 13.508V12.338H451.714V13.508L453.04 13.716L450.778 16.966L448.698 13.872L448.828 13.586L449.816 13.43V12.338H443.55ZM460.742 21.074C459.598 21.074 458.688 21.984 458.688 23.154C458.688 24.298 459.598 25.208 460.716 25.208C461.886 25.208 462.822 24.298 462.822 23.154C462.822 22.036 461.86 21.074 460.742 21.074ZM465.268 25H472.444V23.83L470.598 23.7L470.208 23.336V15.874C470.702 15.536 471.508 15.12 472.184 15.12C472.938 15.12 473.484 15.666 473.744 16.082H475.096L475.434 12.494C474.862 12.234 474.42 12.052 473.796 12.052C472.99 12.052 471.976 12.806 470.104 14.756L470.208 12.104H468.96L465.138 13.326V14.366H467.01V23.336L466.646 23.7L465.268 23.83V25ZM480.357 12.026L476.717 13.274V14.288H478.407V20.788C478.407 22.374 478.875 25.234 481.865 25.234C483.633 25.234 485.141 24.324 486.311 23.57V25H491.199V23.83L489.873 23.7L489.509 23.336V12.026H488.313L484.621 13.274V14.288H486.311V22.582C485.505 22.842 484.621 22.998 483.997 22.998C483.425 22.998 482.697 22.92 482.177 22.296C481.631 21.646 481.605 20.658 481.605 20.086V12.026H480.357Z" fill="white"/>
<rect x="514" width="1" height="37" fill="#FFE14A"/>
</svg>
