<svg width="26" height="26" viewBox="0 0 26 26" fill="none" xmlns="http://www.w3.org/2000/svg">
<path d="M12.1382 19.5493C12.2514 19.6624 12.3857 19.7522 12.5336 19.8135C12.6814 19.8747 12.8399 19.9062 13 19.9062C13.16 19.9062 13.3185 19.8747 13.4664 19.8135C13.6143 19.7522 13.7486 19.6624 13.8618 19.5493L18.458 14.9531C18.6865 14.7245 18.8149 14.4145 18.8149 14.0913C18.8149 13.7681 18.6865 13.4581 18.458 13.2295C18.2294 13.001 17.9194 12.8726 17.5962 12.8726C17.2729 12.8726 16.963 13.001 16.7344 13.2295L14.2187 15.7452V2.4375C14.2187 2.11427 14.0903 1.80427 13.8618 1.57571C13.6332 1.34715 13.3232 1.21875 13 1.21875C12.6768 1.21875 12.3668 1.34715 12.1382 1.57571C11.9096 1.80427 11.7812 2.11427 11.7812 2.4375V15.7452L9.26559 13.2295C9.03703 13.001 8.72703 12.8726 8.4038 12.8726C8.08057 12.8726 7.77058 13.001 7.54202 13.2295C7.31346 13.4581 7.18506 13.7681 7.18506 14.0913C7.18506 14.4145 7.31346 14.7245 7.54202 14.9531L12.1382 19.5493Z" fill="#FFE14A"/>
<path d="M23.5625 11.7812C23.2393 11.7813 22.9293 11.9097 22.7007 12.1382C22.4722 12.3668 22.3438 12.6768 22.3438 13V22.3438H3.65625V13C3.65625 12.6768 3.52785 12.3668 3.29929 12.1382C3.07073 11.9097 2.76073 11.7813 2.4375 11.7812C2.11427 11.7813 1.80427 11.9097 1.57571 12.1382C1.34715 12.3668 1.21875 12.6768 1.21875 13V22.75C1.21875 23.2887 1.43276 23.8054 1.81369 24.1863C2.19462 24.5672 2.71128 24.7812 3.25 24.7812H22.75C23.2887 24.7812 23.8054 24.5672 24.1863 24.1863C24.5672 23.8054 24.7812 23.2887 24.7812 22.75V13C24.7812 12.6768 24.6528 12.3668 24.4243 12.1382C24.1957 11.9097 23.8857 11.7813 23.5625 11.7812Z" fill="#FFE14A"/>
</svg>
