<svg width="38" height="38" viewBox="0 0 38 38" fill="none" xmlns="http://www.w3.org/2000/svg">
<g clip-path="url(#clip0)">
<path d="M37.3514 11.1721C37.2651 9.15302 36.9486 7.76491 36.4952 6.5621C36.0275 5.28535 35.3079 4.14227 34.3652 3.19203C33.444 2.227 32.3287 1.47713 31.1054 1.00215C29.9328 0.534421 28.5942 0.207911 26.6371 0.118889C24.6653 0.022328 24.0393 0 19.0383 0C14.0372 0 13.4113 0.022328 11.4468 0.11135C9.48958 0.200372 8.14403 0.527172 6.97838 0.99461C5.74049 1.47713 4.63246 2.21946 3.71135 3.19203C2.77591 4.14227 2.04931 5.29289 1.58861 6.55485C1.13522 7.76491 0.818724 9.14548 0.732432 11.1646C0.638831 13.1987 0.617188 13.8445 0.617188 19.0037C0.617188 24.1629 0.638831 24.8087 0.725123 26.8353C0.811416 28.8544 1.1282 30.2425 1.58158 31.4453C2.04931 32.7221 2.77591 33.8652 3.71135 34.8154C4.63246 35.7804 5.7478 36.5303 6.97107 37.0053C8.14403 37.473 9.48227 37.7995 11.4397 37.8885C13.4039 37.9778 14.0302 37.9999 19.0312 37.9999C24.0323 37.9999 24.6582 37.9778 26.6227 37.8885C28.5799 37.7995 29.9255 37.473 31.0911 37.0053C33.5666 36.0179 35.5238 33.9988 36.4809 31.4453C36.934 30.2353 37.2508 28.8544 37.3371 26.8353C37.4233 24.8087 37.445 24.1629 37.445 19.0037C37.445 13.8445 37.4377 13.1987 37.3514 11.1721ZM34.0343 26.6869C33.9551 28.5427 33.6529 29.5448 33.401 30.2129C32.7821 31.8684 31.5085 33.1823 29.9038 33.8208C29.2562 34.0806 28.2777 34.3923 26.4858 34.4738C24.543 34.5631 23.9603 34.5852 19.0456 34.5852C14.1308 34.5852 13.5408 34.5631 11.605 34.4738C9.80608 34.3923 8.83465 34.0806 8.18704 33.8208C7.38848 33.5163 6.6616 33.0338 6.07161 32.4028C5.45997 31.7866 4.99225 31.0443 4.69711 30.2205C4.44526 29.5524 4.1431 28.5427 4.06411 26.6944C3.97754 24.6901 3.95617 24.0887 3.95617 19.0185C3.95617 13.9483 3.97754 13.3397 4.06411 11.3429C4.1431 9.48707 4.44526 8.48492 4.69711 7.81682C4.99225 6.99271 5.45997 6.24313 6.07892 5.63419C6.67594 5.0032 7.39551 4.52069 8.19435 4.21651C8.84196 3.95669 9.82069 3.64497 11.6123 3.5632C13.5552 3.47417 14.1381 3.45185 19.0526 3.45185C23.9746 3.45185 24.5573 3.47417 26.4931 3.5632C28.2921 3.64497 29.2635 3.95669 29.9111 4.21651C30.7097 4.52069 31.4366 5.0032 32.0265 5.63419C32.6382 6.25038 33.1059 6.99271 33.401 7.81682C33.6529 8.48492 33.9551 9.49432 34.0343 11.3429C34.1206 13.3472 34.1423 13.9483 34.1423 19.0185C34.1423 24.0887 34.1206 24.6826 34.0343 26.6869Z" fill="#FFE14A"/>
<path d="M19.0383 9.242C13.8144 9.242 9.57593 13.6142 9.57593 19.0037C9.57593 24.3931 13.8144 28.7653 19.0383 28.7653C24.2625 28.7653 28.5007 24.3931 28.5007 19.0037C28.5007 13.6142 24.2625 9.242 19.0383 9.242ZM19.0383 25.3358C15.6493 25.3358 12.9003 22.5002 12.9003 19.0037C12.9003 15.5072 15.6493 12.6715 19.0383 12.6715C22.4276 12.6715 25.1763 15.5072 25.1763 19.0037C25.1763 22.5002 22.4276 25.3358 19.0383 25.3358Z" fill="#FFE14A"/>
<path d="M31.0841 8.85605C31.0841 10.1145 30.095 11.135 28.8748 11.135C27.6549 11.135 26.6658 10.1145 26.6658 8.85605C26.6658 7.59728 27.6549 6.57715 28.8748 6.57715C30.095 6.57715 31.0841 7.59728 31.0841 8.85605Z" fill="#FFE14A"/>
</g>
<defs>
<clipPath id="clip0">
<rect width="36.835" height="38" fill="white" transform="translate(0.55249)"/>
</clipPath>
</defs>
</svg>
