<svg width="46" height="44" viewBox="0 0 46 44" fill="none" xmlns="http://www.w3.org/2000/svg">
<path d="M45.7392 16.889L26.8477 2.12763C24.6626 0.420404 21.6032 0.41133 19.4081 2.10589L0.263762 16.8855C0.0995344 17.0111 -0.000277682 17.2132 8.16778e-05 17.42V23.3494C8.16778e-05 23.7216 0.301674 24.0232 0.673881 24.0232C1.04609 24.0232 1.34768 23.7216 1.34768 23.3494V18.5682L18.2917 28.0331L1.34768 41.1139V26.4938C1.34768 26.1216 1.04609 25.82 0.673881 25.82C0.301674 25.82 8.16778e-05 26.1216 8.16778e-05 26.4938V42.4853C-0.00584775 42.847 0.311916 43.1654 0.673881 43.1591H45.3243C45.6838 43.164 46.0056 42.8468 45.9981 42.4853V17.4996C46.0143 17.2683 45.926 17.0319 45.7392 16.889ZM2.64928 41.8115L20.2317 28.2379C21.939 26.9199 24.3184 26.9268 26.0179 28.2549L26.3424 28.5084C26.3427 28.5086 34.7894 35.1086 34.79 35.1091C35.0835 35.3382 35.5067 35.2864 35.7359 34.993C35.965 34.6997 35.913 34.2763 35.6198 34.0472L27.9628 28.0643L32.1056 25.7304C32.4298 25.5477 32.5446 25.1369 32.3619 24.8126C32.1794 24.4883 31.7686 24.3739 31.4441 24.5563L26.8118 27.166C24.6439 25.4976 21.6328 25.4865 19.4529 27.1382L1.89373 17.3294L20.2318 3.17247C21.9391 1.85452 24.3185 1.86144 26.018 3.18945L44.1802 17.3809L34.1055 23.0567C33.7814 23.2394 33.6666 23.6502 33.8492 23.9745C34.033 24.3018 34.4487 24.4117 34.767 24.2309L44.6506 18.6627V41.1036L38.0268 35.9279C37.7336 35.6989 37.3101 35.7507 37.081 36.044C36.8519 36.3373 36.9038 36.7607 37.197 36.9898L43.3677 41.8114H2.64928V41.8115Z" fill="#001B7B"/>
</svg>
