<svg width="49" height="49" viewBox="0 0 49 49" fill="none" xmlns="http://www.w3.org/2000/svg">
<path d="M35.7567 47.6757H13.2432C13.0676 47.6757 12.8992 47.6059 12.775 47.4817C12.6508 47.3575 12.5811 47.1891 12.5811 47.0135V1.98647C12.581 1.88505 12.6043 1.78498 12.6491 1.69397C12.6938 1.60296 12.7589 1.52346 12.8393 1.46158C12.9196 1.39971 13.0131 1.35713 13.1126 1.33711C13.212 1.3171 13.3147 1.3202 13.4127 1.34616L35.9262 7.30562C36.0675 7.34303 36.1924 7.42612 36.2815 7.54194C36.3706 7.65776 36.4189 7.7998 36.4189 7.94593V47.0135C36.4189 47.1891 36.3491 47.3575 36.225 47.4817C36.1008 47.6059 35.9323 47.6757 35.7567 47.6757ZM13.9054 46.3513H35.0946V8.4558L13.9054 2.84728V46.3513Z" fill="#001B7B"/>
<path d="M47.0135 47.6757H35.7568C35.5811 47.6757 35.4127 47.606 35.2885 47.4818C35.1644 47.3576 35.0946 47.1892 35.0946 47.0136V15.2298C35.0946 15.0542 35.1644 14.8857 35.2885 14.7616C35.4127 14.6374 35.5811 14.5676 35.7568 14.5676H47.0135C47.1891 14.5676 47.3576 14.6374 47.4817 14.7616C47.6059 14.8857 47.6757 15.0542 47.6757 15.2298V47.0136C47.6757 47.1892 47.6059 47.3576 47.4817 47.4818C47.3576 47.606 47.1891 47.6757 47.0135 47.6757ZM36.4189 46.3514H46.3514V15.892H36.4189V46.3514Z" fill="#001B7B"/>
<path d="M1.9865 27.4598C1.81089 27.4598 1.64246 27.3901 1.51828 27.2659C1.3941 27.1417 1.32434 26.9733 1.32434 26.7977V24.8708C1.32434 24.6952 1.3941 24.5267 1.51828 24.4026C1.64246 24.2784 1.81089 24.2086 1.9865 24.2086C2.16212 24.2086 2.33054 24.2784 2.45472 24.4026C2.5789 24.5267 2.64867 24.6952 2.64867 24.8708V26.7977C2.64867 26.9733 2.5789 27.1417 2.45472 27.2659C2.33054 27.3901 2.16212 27.4598 1.9865 27.4598Z" fill="#001B7B"/>
<path d="M13.2433 47.6757H1.9865C1.81089 47.6757 1.64246 47.6059 1.51828 47.4817C1.3941 47.3575 1.32434 47.1891 1.32434 47.0135V38.0346C1.32434 37.859 1.3941 37.6905 1.51828 37.5664C1.64246 37.4422 1.81089 37.3724 1.9865 37.3724C2.16212 37.3724 2.33054 37.4422 2.45472 37.5664C2.5789 37.6905 2.64867 37.859 2.64867 38.0346V46.3513H12.5811V9.27025H2.64867V20.2357C2.64867 20.4113 2.5789 20.5797 2.45472 20.7039C2.33054 20.8281 2.16212 20.8978 1.9865 20.8978C1.81089 20.8978 1.64246 20.8281 1.51828 20.7039C1.3941 20.5797 1.32434 20.4113 1.32434 20.2357V8.60808C1.32434 8.43247 1.3941 8.26405 1.51828 8.13987C1.64246 8.01569 1.81089 7.94592 1.9865 7.94592H13.2433C13.4189 7.94592 13.5873 8.01569 13.7115 8.13987C13.8357 8.26405 13.9054 8.43247 13.9054 8.60808V47.0135C13.9054 47.1891 13.8357 47.3575 13.7115 47.4817C13.5873 47.6059 13.4189 47.6757 13.2433 47.6757Z" fill="#001B7B"/>
<path d="M1.9865 34.0616C1.81089 34.0616 1.64246 33.9918 1.51828 33.8676C1.3941 33.7434 1.32434 33.575 1.32434 33.3994V31.4328C1.32434 31.2572 1.3941 31.0888 1.51828 30.9646C1.64246 30.8404 1.81089 30.7706 1.9865 30.7706C2.16212 30.7706 2.33054 30.8404 2.45472 30.9646C2.5789 31.0888 2.64867 31.2572 2.64867 31.4328V33.3994C2.64867 33.575 2.5789 33.7434 2.45472 33.8676C2.33054 33.9918 2.16212 34.0616 1.9865 34.0616Z" fill="#001B7B"/>
<path d="M13.2433 17.6579H6.84222C6.6666 17.6579 6.49818 17.5882 6.374 17.464C6.24982 17.3398 6.18005 17.1714 6.18005 16.9958V13.4638C6.18005 13.2882 6.24982 13.1198 6.374 12.9956C6.49818 12.8714 6.6666 12.8016 6.84222 12.8016H13.2433C13.419 12.8016 13.5874 12.8714 13.7116 12.9956C13.8357 13.1198 13.9055 13.2882 13.9055 13.4638V16.9958C13.9055 17.1714 13.8357 17.3398 13.7116 17.464C13.5874 17.5882 13.419 17.6579 13.2433 17.6579ZM7.50438 16.3336H12.5812V14.126H7.50438V16.3336Z" fill="#001B7B"/>
<path d="M13.2433 26.0448H6.84222C6.6666 26.0448 6.49818 25.9751 6.374 25.8509C6.24982 25.7267 6.18005 25.5583 6.18005 25.3827V21.8514C6.18005 21.6758 6.24982 21.5073 6.374 21.3832C6.49818 21.259 6.6666 21.1892 6.84222 21.1892H13.2433C13.419 21.1892 13.5874 21.259 13.7116 21.3832C13.8357 21.5073 13.9055 21.6758 13.9055 21.8514V25.3827C13.9055 25.5583 13.8357 25.7267 13.7116 25.8509C13.5874 25.9751 13.419 26.0448 13.2433 26.0448ZM7.50438 24.7205H12.5812V22.5135H7.50438V24.7205Z" fill="#001B7B"/>
<path d="M13.2433 34.4324H6.84222C6.6666 34.4324 6.49818 34.3626 6.374 34.2385C6.24982 34.1143 6.18005 33.9459 6.18005 33.7702V30.2389C6.18005 30.0633 6.24982 29.8949 6.374 29.7707C6.49818 29.6465 6.6666 29.5768 6.84222 29.5768H13.2433C13.419 29.5768 13.5874 29.6465 13.7116 29.7707C13.8357 29.8949 13.9055 30.0633 13.9055 30.2389V33.7702C13.9055 33.9459 13.8357 34.1143 13.7116 34.2385C13.5874 34.3626 13.419 34.4324 13.2433 34.4324ZM7.50438 33.1081H12.5812V30.9011H7.50438V33.1081Z" fill="#001B7B"/>
<path d="M13.2433 42.82H6.84222C6.6666 42.82 6.49818 42.7503 6.374 42.6261C6.24982 42.5019 6.18005 42.3335 6.18005 42.1579V38.6259C6.18005 38.4503 6.24982 38.2819 6.374 38.1577C6.49818 38.0335 6.6666 37.9637 6.84222 37.9637H13.2433C13.419 37.9637 13.5874 38.0335 13.7116 38.1577C13.8357 38.2819 13.9055 38.4503 13.9055 38.6259V42.1579C13.9055 42.3335 13.8357 42.5019 13.7116 42.6261C13.5874 42.7503 13.419 42.82 13.2433 42.82ZM7.50438 41.4957H12.5812V39.2881H7.50438V41.4957Z" fill="#001B7B"/>
<path d="M31.3699 16.9262H27.4387C27.263 16.9262 27.0946 16.8565 26.9704 16.7323C26.8463 16.6081 26.7765 16.4397 26.7765 16.2641V12.3328C26.7765 12.1572 26.8463 11.9888 26.9704 11.8646C27.0946 11.7404 27.263 11.6707 27.4387 11.6707H31.3699C31.5455 11.6707 31.7139 11.7404 31.8381 11.8646C31.9623 11.9888 32.0321 12.1572 32.0321 12.3328V16.2641C32.0321 16.4397 31.9623 16.6081 31.8381 16.7323C31.7139 16.8565 31.5455 16.9262 31.3699 16.9262ZM28.1008 15.6019H30.7077V12.995H28.1008V15.6019Z" fill="#001B7B"/>
<path d="M21.5613 16.9262H17.6301C17.4544 16.9262 17.286 16.8565 17.1618 16.7323C17.0377 16.6081 16.9679 16.4397 16.9679 16.2641V12.3328C16.9679 12.1572 17.0377 11.9888 17.1618 11.8646C17.286 11.7404 17.4544 11.6707 17.6301 11.6707H21.5613C21.7369 11.6707 21.9054 11.7404 22.0295 11.8646C22.1537 11.9888 22.2235 12.1572 22.2235 12.3328V16.2641C22.2235 16.4397 22.1537 16.6081 22.0295 16.7323C21.9054 16.8565 21.7369 16.9262 21.5613 16.9262ZM18.2922 15.6019H20.8991V12.995H18.2922V15.6019Z" fill="#001B7B"/>
<path d="M31.3699 25.1416H27.4387C27.263 25.1416 27.0946 25.0719 26.9704 24.9477C26.8463 24.8235 26.7765 24.6551 26.7765 24.4795V20.5475C26.7765 20.3719 26.8463 20.2035 26.9704 20.0793C27.0946 19.9551 27.263 19.8854 27.4387 19.8854H31.3699C31.5455 19.8854 31.7139 19.9551 31.8381 20.0793C31.9623 20.2035 32.0321 20.3719 32.0321 20.5475V24.4795C32.0321 24.6551 31.9623 24.8235 31.8381 24.9477C31.7139 25.0719 31.5455 25.1416 31.3699 25.1416ZM28.1008 23.8173H30.7077V21.2097H28.1008V23.8173Z" fill="#001B7B"/>
<path d="M21.5613 25.1416H17.6301C17.4544 25.1416 17.286 25.0719 17.1618 24.9477C17.0377 24.8235 16.9679 24.6551 16.9679 24.4795V20.5475C16.9679 20.3719 17.0377 20.2035 17.1618 20.0793C17.286 19.9551 17.4544 19.8854 17.6301 19.8854H21.5613C21.7369 19.8854 21.9054 19.9551 22.0295 20.0793C22.1537 20.2035 22.2235 20.3719 22.2235 20.5475V24.4795C22.2235 24.6551 22.1537 24.8235 22.0295 24.9477C21.9054 25.0719 21.7369 25.1416 21.5613 25.1416ZM18.2922 23.8173H20.8991V21.2097H18.2922V23.8173Z" fill="#001B7B"/>
<path d="M31.3699 33.3564H27.4387C27.263 33.3564 27.0946 33.2866 26.9704 33.1625C26.8463 33.0383 26.7765 32.8699 26.7765 32.6942V28.763C26.7765 28.5874 26.8463 28.419 26.9704 28.2948C27.0946 28.1706 27.263 28.1008 27.4387 28.1008H31.3699C31.5455 28.1008 31.7139 28.1706 31.8381 28.2948C31.9623 28.419 32.0321 28.5874 32.0321 28.763V32.6942C32.0321 32.8699 31.9623 33.0383 31.8381 33.1625C31.7139 33.2866 31.5455 33.3564 31.3699 33.3564ZM28.1008 32.0321H30.7077V29.4252H28.1008V32.0321Z" fill="#001B7B"/>
<path d="M21.5613 33.3564H17.6301C17.4544 33.3564 17.286 33.2866 17.1618 33.1625C17.0377 33.0383 16.9679 32.8699 16.9679 32.6942V28.763C16.9679 28.5874 17.0377 28.419 17.1618 28.2948C17.286 28.1706 17.4544 28.1008 17.6301 28.1008H21.5613C21.7369 28.1008 21.9054 28.1706 22.0295 28.2948C22.1537 28.419 22.2235 28.5874 22.2235 28.763V32.6942C22.2235 32.8699 22.1537 33.0383 22.0295 33.1625C21.9054 33.2866 21.7369 33.3564 21.5613 33.3564ZM18.2922 32.0321H20.8991V29.4252H18.2922V32.0321Z" fill="#001B7B"/>
<path d="M31.3699 41.5713H27.4387C27.263 41.5713 27.0946 41.5015 26.9704 41.3773C26.8463 41.2531 26.7765 41.0847 26.7765 40.9091V36.9778C26.7765 36.8022 26.8463 36.6338 26.9704 36.5096C27.0946 36.3854 27.263 36.3157 27.4387 36.3157H31.3699C31.5455 36.3157 31.7139 36.3854 31.8381 36.5096C31.9623 36.6338 32.0321 36.8022 32.0321 36.9778V40.9091C32.0321 41.0847 31.9623 41.2531 31.8381 41.3773C31.7139 41.5015 31.5455 41.5713 31.3699 41.5713ZM28.1008 40.2469H30.7077V37.64H28.1008V40.2469Z" fill="#001B7B"/>
<path d="M21.5613 41.5713H17.6301C17.4544 41.5713 17.286 41.5015 17.1618 41.3773C17.0377 41.2531 16.9679 41.0847 16.9679 40.9091V36.9778C16.9679 36.8022 17.0377 36.6338 17.1618 36.5096C17.286 36.3854 17.4544 36.3157 17.6301 36.3157H21.5613C21.7369 36.3157 21.9054 36.3854 22.0295 36.5096C22.1537 36.6338 22.2235 36.8022 22.2235 36.9778V40.9091C22.2235 41.0847 22.1537 41.2531 22.0295 41.3773C21.9054 41.5015 21.7369 41.5713 21.5613 41.5713ZM18.2922 40.2469H20.8991V37.64H18.2922V40.2469Z" fill="#001B7B"/>
<path d="M44.0616 23.3961H38.7087C38.5331 23.3961 38.3646 23.3264 38.2405 23.2022C38.1163 23.078 38.0465 22.9096 38.0465 22.734V19.6443C38.0465 19.4687 38.1163 19.3003 38.2405 19.1761C38.3646 19.0519 38.5331 18.9822 38.7087 18.9822H44.0616C44.2372 18.9822 44.4056 19.0519 44.5298 19.1761C44.654 19.3003 44.7237 19.4687 44.7237 19.6443V22.734C44.7237 22.9096 44.654 23.078 44.5298 23.2022C44.4056 23.3264 44.2372 23.3961 44.0616 23.3961ZM39.3708 22.0718H43.3994V20.3065H39.3708V22.0718Z" fill="#001B7B"/>
<path d="M44.0616 30.0179H38.7087C38.5331 30.0179 38.3646 29.9481 38.2405 29.8239C38.1163 29.6997 38.0465 29.5313 38.0465 29.3557V26.266C38.0465 26.0904 38.1163 25.922 38.2405 25.7978C38.3646 25.6736 38.5331 25.6039 38.7087 25.6039H44.0616C44.2372 25.6039 44.4056 25.6736 44.5298 25.7978C44.654 25.922 44.7237 26.0904 44.7237 26.266V29.3557C44.7237 29.5313 44.654 29.6997 44.5298 29.8239C44.4056 29.9481 44.2372 30.0179 44.0616 30.0179ZM39.3708 28.6935H43.3994V26.9282H39.3708V28.6935Z" fill="#001B7B"/>
<path d="M44.0616 36.6394H38.7087C38.5331 36.6394 38.3646 36.5697 38.2405 36.4455C38.1163 36.3213 38.0465 36.1529 38.0465 35.9773V32.8876C38.0465 32.712 38.1163 32.5436 38.2405 32.4194C38.3646 32.2952 38.5331 32.2255 38.7087 32.2255H44.0616C44.2372 32.2255 44.4056 32.2952 44.5298 32.4194C44.654 32.5436 44.7237 32.712 44.7237 32.8876V35.9773C44.7237 36.1529 44.654 36.3213 44.5298 36.4455C44.4056 36.5697 44.2372 36.6394 44.0616 36.6394ZM39.3708 35.3151H43.3994V33.5498H39.3708V35.3151Z" fill="#001B7B"/>
<path d="M44.0616 43.261H38.7087C38.5331 43.261 38.3646 43.1913 38.2405 43.0671C38.1163 42.9429 38.0465 42.7745 38.0465 42.5989V39.5092C38.0465 39.3336 38.1163 39.1652 38.2405 39.041C38.3646 38.9168 38.5331 38.847 38.7087 38.847H44.0616C44.2372 38.847 44.4056 38.9168 44.5298 39.041C44.654 39.1652 44.7237 39.3336 44.7237 39.5092V42.5989C44.7237 42.7745 44.654 42.9429 44.5298 43.0671C44.4056 43.1913 44.2372 43.261 44.0616 43.261ZM39.3708 41.9367H43.3994V40.1714H39.3708V41.9367Z" fill="#001B7B"/>
</svg>
