<svg width="49" height="49" viewBox="0 0 49 49" fill="none" xmlns="http://www.w3.org/2000/svg">
<path d="M35.0273 0H13.9727C11.9937 0 10.3838 1.60992 10.3838 3.58887V45.4111C10.3838 47.3901 11.9937 49 13.9727 49H35.0273C37.0063 49 38.6162 47.3901 38.6162 45.4111V3.58887C38.6162 1.60992 37.0063 0 35.0273 0ZM37.1807 38.9512H16.8438C16.4473 38.9512 16.126 39.2725 16.126 39.6689C16.126 40.0653 16.4473 40.3867 16.8438 40.3867H37.1807V45.4111C37.1807 46.5985 36.2147 47.5645 35.0273 47.5645H13.9727C12.7853 47.5645 11.8193 46.5985 11.8193 45.4111V40.3867H13.9727C14.3691 40.3867 14.6904 40.0653 14.6904 39.6689C14.6904 39.2725 14.3691 38.9512 13.9727 38.9512H11.8193V7.17773H37.1807V38.9512ZM37.1807 5.74219H11.8193V3.58887C11.8193 2.40148 12.7853 1.43555 13.9727 1.43555H35.0273C36.2147 1.43555 37.1807 2.40148 37.1807 3.58887V5.74219Z" fill="#001B7B"/>
<path d="M27.3711 2.87109H24.5C24.1036 2.87109 23.7822 3.19246 23.7822 3.58887C23.7822 3.98527 24.1036 4.30664 24.5 4.30664H27.3711C27.7675 4.30664 28.0889 3.98527 28.0889 3.58887C28.0889 3.19246 27.7675 2.87109 27.3711 2.87109Z" fill="#001B7B"/>
<path d="M24.5 41.8223C23.3126 41.8223 22.3467 42.7882 22.3467 43.9756C22.3467 45.163 23.3126 46.1289 24.5 46.1289C25.6874 46.1289 26.6533 45.163 26.6533 43.9756C26.6533 42.7882 25.6874 41.8223 24.5 41.8223ZM24.5 44.6934C24.1042 44.6934 23.7822 44.3714 23.7822 43.9756C23.7822 43.5798 24.1042 43.2578 24.5 43.2578C24.8958 43.2578 25.2178 43.5798 25.2178 43.9756C25.2178 44.3714 24.8958 44.6934 24.5 44.6934Z" fill="#001B7B"/>
<path d="M21.6289 4.30664C22.0253 4.30664 22.3467 3.98528 22.3467 3.58887C22.3467 3.19245 22.0253 2.87109 21.6289 2.87109C21.2325 2.87109 20.9111 3.19245 20.9111 3.58887C20.9111 3.98528 21.2325 4.30664 21.6289 4.30664Z" fill="#001B7B"/>
</svg>
