<svg width="47" height="47" viewBox="0 0 47 47" fill="none" xmlns="http://www.w3.org/2000/svg">
<path d="M41.9852 8.99029H43.4374C43.944 8.99029 44.3548 8.57949 44.3548 8.07292C44.3548 7.56635 43.944 7.15555 43.4374 7.15555H39.9514C39.4448 7.15555 39.034 7.56635 39.034 8.07292V11.5589C39.034 12.0655 39.4448 12.4763 39.9514 12.4763C40.458 12.4763 40.8688 12.0655 40.8688 11.5589V10.5495C43.6523 14.276 45.1653 18.7974 45.1653 23.5C45.1653 35.4463 35.4463 45.1653 23.5 45.1653C11.5537 45.1653 1.83473 35.4463 1.83473 23.5C1.83473 11.5537 11.5537 1.83473 23.5 1.83473C24.3835 1.83473 25.2727 1.8884 26.1431 1.99417C26.6454 2.0549 27.1034 1.69722 27.1645 1.19423C27.2257 0.691328 26.8676 0.233929 26.3646 0.172832C25.421 0.058161 24.4573 0 23.5 0C17.2229 0 11.3215 2.44442 6.883 6.883C2.44442 11.3215 0 17.2229 0 23.5C0 29.7771 2.44442 35.6785 6.883 40.117C11.3215 44.5556 17.2229 47 23.5 47C29.7771 47 35.6785 44.5556 40.117 40.117C44.5556 35.6785 47 29.7771 47 23.5C47 18.203 45.2304 13.1179 41.9852 8.99029Z" fill="#001B7B"/>
<path d="M9.95085 13.8534C9.52271 13.5825 8.95605 13.71 8.68497 14.1378C6.59071 17.4455 5.66362 21.4234 6.07451 25.3388C6.49146 29.3123 8.27986 33.0593 11.1103 35.8899C14.5261 39.3057 19.0131 41.0136 23.5001 41.0136C27.9871 41.0136 32.4739 39.3058 35.8898 35.8899C42.7216 29.0582 42.7216 17.9421 35.8898 11.1104C33.0637 8.28438 29.3228 6.49662 25.3559 6.07646C21.4477 5.66227 17.4742 6.58212 14.1679 8.6661C13.7392 8.93626 13.6109 9.50274 13.8809 9.93133C14.1511 10.36 14.7176 10.4884 15.1462 10.2183C21.3786 6.29012 29.375 7.19033 34.5924 12.4078C40.7088 18.5241 40.7088 28.4761 34.5924 34.5924C28.4762 40.7089 18.524 40.7089 12.4077 34.5924C7.26241 29.4471 6.34871 21.2575 10.2352 15.1194C10.5061 14.6913 10.3789 14.1245 9.95085 13.8534Z" fill="#001B7B"/>
<path d="M35.4258 24.4323H36.5571C37.0637 24.4323 37.4745 24.0215 37.4745 23.5149C37.4745 23.0083 37.0637 22.5975 36.5571 22.5975H35.4258C34.9192 22.5975 34.5084 23.0083 34.5084 23.5149C34.5084 24.0215 34.9191 24.4323 35.4258 24.4323Z" fill="#001B7B"/>
<path d="M9.52551 23.4851C9.52551 23.9917 9.93631 24.4025 10.4429 24.4025H11.5742C12.0807 24.4025 12.4915 23.9917 12.4915 23.4851C12.4915 22.9785 12.0807 22.5677 11.5742 22.5677H10.4429C9.93631 22.5677 9.52551 22.9785 9.52551 23.4851Z" fill="#001B7B"/>
<path d="M24.4323 11.5742V10.4429C24.4323 9.93631 24.0215 9.52551 23.5149 9.52551C23.0083 9.52551 22.5975 9.93631 22.5975 10.4429V11.5742C22.5975 12.0807 23.0083 12.4915 23.5149 12.4915C24.0215 12.4915 24.4323 12.0807 24.4323 11.5742Z" fill="#001B7B"/>
<path d="M22.5677 35.4258V36.5571C22.5677 37.0637 22.9785 37.4745 23.4851 37.4745C23.9917 37.4745 24.4025 37.0637 24.4025 36.5571V35.4258C24.4025 34.9192 23.9917 34.5084 23.4851 34.5084C22.9785 34.5084 22.5677 34.9191 22.5677 35.4258Z" fill="#001B7B"/>
<path d="M18.9018 17.6044C18.5435 17.2463 17.9628 17.2463 17.6044 17.6044C17.2461 17.9627 17.2461 18.5435 17.6044 18.9019L20.7134 22.0109C20.4752 22.4549 20.3397 22.9619 20.3397 23.5001C20.3397 25.2427 21.7574 26.6604 23.5 26.6604C25.2426 26.6604 26.6603 25.2427 26.6603 23.5001C26.6603 22.9619 26.5248 22.4549 26.2866 22.0109L32.5598 15.7377C32.9181 15.3794 32.9181 14.7986 32.5598 14.4402C32.2015 14.0821 31.6208 14.0821 31.2624 14.4402L24.9892 20.7135C24.5452 20.4752 24.0381 20.3397 23.5 20.3397C22.9619 20.3397 22.4549 20.4753 22.0108 20.7135L18.9018 17.6044ZM24.8256 23.5001C24.8256 24.231 24.231 24.8257 23.5 24.8257C22.7691 24.8257 22.1744 24.231 22.1744 23.5001C22.1744 22.7691 22.7691 22.1745 23.5 22.1745C24.231 22.1745 24.8256 22.7691 24.8256 23.5001Z" fill="#001B7B"/>
<path d="M12.4072 12.4073C12.5788 12.2366 12.6769 11.9999 12.6769 11.7587C12.6769 11.5174 12.5788 11.2816 12.4072 11.1101C12.2366 10.9396 12.0008 10.8413 11.7587 10.8413C11.5174 10.8413 11.2807 10.9395 11.1101 11.1101C10.9396 11.2807 10.8413 11.5174 10.8413 11.7587C10.8413 12.0009 10.9395 12.2366 11.1101 12.4073C11.2807 12.5778 11.5174 12.676 11.7587 12.676C12.0008 12.676 12.2366 12.5778 12.4072 12.4073Z" fill="#001B7B"/>
<path d="M29.8546 2.74086C30.0969 2.74086 30.3336 2.64353 30.5041 2.47207C30.6747 2.30144 30.773 2.06559 30.773 1.82349C30.773 1.58223 30.6748 1.34555 30.5041 1.17492C30.3336 1.00438 30.0969 0.906128 29.8546 0.906128C29.6134 0.906128 29.3767 1.00429 29.2061 1.17492C29.0355 1.34555 28.9373 1.58223 28.9373 1.82349C28.9373 2.06568 29.0354 2.30144 29.2061 2.47207C29.3767 2.64353 29.6134 2.74086 29.8546 2.74086Z" fill="#001B7B"/>
</svg>
